<mxfile host="app.diagrams.net" modified="2024-04-11T03:38:25.983Z" agent="Mozilla/5.0 (Windows NT 10.0; Win64; x64) AppleWebKit/537.36 (KHTML, like Gecko) Chrome/123.0.0.0 Safari/537.36" etag="RPk-SCMyZXeo_pCwytNY" version="24.2.3" type="device">
  <diagram name="Page-1" id="tENiPY-9sCodkAO10xxl">
    <mxGraphModel dx="2345" dy="949" grid="1" gridSize="10" guides="1" tooltips="1" connect="1" arrows="1" fold="1" page="1" pageScale="1" pageWidth="850" pageHeight="1100" math="0" shadow="0">
      <root>
        <mxCell id="0" />
        <mxCell id="1" parent="0" />
        <mxCell id="uEPAvsmC9k6E7ESDGV_1-8" value="" style="group;fontStyle=1" vertex="1" connectable="0" parent="1">
          <mxGeometry x="40" y="10" width="140" height="190" as="geometry" />
        </mxCell>
        <mxCell id="uEPAvsmC9k6E7ESDGV_1-6" value="" style="rounded=0;whiteSpace=wrap;html=1;fontStyle=1" vertex="1" parent="uEPAvsmC9k6E7ESDGV_1-8">
          <mxGeometry y="30" width="140" height="160" as="geometry" />
        </mxCell>
        <mxCell id="uEPAvsmC9k6E7ESDGV_1-2" value="Falcuty&amp;nbsp;&lt;div&gt;Management&lt;/div&gt;" style="rounded=1;whiteSpace=wrap;html=1;fontStyle=1" vertex="1" parent="uEPAvsmC9k6E7ESDGV_1-8">
          <mxGeometry x="10" y="40" width="120" height="40" as="geometry" />
        </mxCell>
        <mxCell id="uEPAvsmC9k6E7ESDGV_1-4" value="Student&amp;nbsp;&lt;div&gt;Management&lt;/div&gt;" style="rounded=1;whiteSpace=wrap;html=1;fontStyle=1" vertex="1" parent="uEPAvsmC9k6E7ESDGV_1-8">
          <mxGeometry x="10" y="90" width="120" height="40" as="geometry" />
        </mxCell>
        <mxCell id="uEPAvsmC9k6E7ESDGV_1-5" value="Facilities&lt;div&gt;Management&lt;/div&gt;" style="rounded=1;whiteSpace=wrap;html=1;fontStyle=1" vertex="1" parent="uEPAvsmC9k6E7ESDGV_1-8">
          <mxGeometry x="10" y="140" width="120" height="40" as="geometry" />
        </mxCell>
        <mxCell id="uEPAvsmC9k6E7ESDGV_1-7" value="City Campus 1" style="text;html=1;align=center;verticalAlign=middle;resizable=0;points=[];autosize=1;strokeColor=none;fillColor=none;fontStyle=1" vertex="1" parent="uEPAvsmC9k6E7ESDGV_1-8">
          <mxGeometry x="20" width="100" height="30" as="geometry" />
        </mxCell>
        <mxCell id="uEPAvsmC9k6E7ESDGV_1-9" value="" style="group;fontStyle=1" vertex="1" connectable="0" parent="1">
          <mxGeometry x="40" y="210" width="140" height="190" as="geometry" />
        </mxCell>
        <mxCell id="uEPAvsmC9k6E7ESDGV_1-10" value="" style="rounded=0;whiteSpace=wrap;html=1;fontStyle=1" vertex="1" parent="uEPAvsmC9k6E7ESDGV_1-9">
          <mxGeometry y="30" width="140" height="160" as="geometry" />
        </mxCell>
        <mxCell id="uEPAvsmC9k6E7ESDGV_1-11" value="Falcuty&amp;nbsp;&lt;div&gt;Management&lt;/div&gt;" style="rounded=1;whiteSpace=wrap;html=1;fontStyle=1" vertex="1" parent="uEPAvsmC9k6E7ESDGV_1-9">
          <mxGeometry x="10" y="40" width="120" height="40" as="geometry" />
        </mxCell>
        <mxCell id="uEPAvsmC9k6E7ESDGV_1-12" value="Student&amp;nbsp;&lt;div&gt;Management&lt;/div&gt;" style="rounded=1;whiteSpace=wrap;html=1;fontStyle=1" vertex="1" parent="uEPAvsmC9k6E7ESDGV_1-9">
          <mxGeometry x="10" y="90" width="120" height="40" as="geometry" />
        </mxCell>
        <mxCell id="uEPAvsmC9k6E7ESDGV_1-13" value="Facilities&lt;div&gt;Management&lt;/div&gt;" style="rounded=1;whiteSpace=wrap;html=1;fontStyle=1" vertex="1" parent="uEPAvsmC9k6E7ESDGV_1-9">
          <mxGeometry x="10" y="140" width="120" height="40" as="geometry" />
        </mxCell>
        <mxCell id="uEPAvsmC9k6E7ESDGV_1-14" value="City Campus 2" style="text;html=1;align=center;verticalAlign=middle;resizable=0;points=[];autosize=1;strokeColor=none;fillColor=none;fontStyle=1" vertex="1" parent="uEPAvsmC9k6E7ESDGV_1-9">
          <mxGeometry x="20" width="100" height="30" as="geometry" />
        </mxCell>
        <mxCell id="uEPAvsmC9k6E7ESDGV_1-15" value="" style="group;fontStyle=1" vertex="1" connectable="0" parent="1">
          <mxGeometry x="40" y="410" width="140" height="190" as="geometry" />
        </mxCell>
        <mxCell id="uEPAvsmC9k6E7ESDGV_1-16" value="" style="rounded=0;whiteSpace=wrap;html=1;fontStyle=1" vertex="1" parent="uEPAvsmC9k6E7ESDGV_1-15">
          <mxGeometry y="30" width="140" height="160" as="geometry" />
        </mxCell>
        <mxCell id="uEPAvsmC9k6E7ESDGV_1-17" value="Falcuty&amp;nbsp;&lt;div&gt;Management&lt;/div&gt;" style="rounded=1;whiteSpace=wrap;html=1;fontStyle=1" vertex="1" parent="uEPAvsmC9k6E7ESDGV_1-15">
          <mxGeometry x="10" y="40" width="120" height="40" as="geometry" />
        </mxCell>
        <mxCell id="uEPAvsmC9k6E7ESDGV_1-18" value="Student&amp;nbsp;&lt;div&gt;Management&lt;/div&gt;" style="rounded=1;whiteSpace=wrap;html=1;fontStyle=1" vertex="1" parent="uEPAvsmC9k6E7ESDGV_1-15">
          <mxGeometry x="10" y="90" width="120" height="40" as="geometry" />
        </mxCell>
        <mxCell id="uEPAvsmC9k6E7ESDGV_1-19" value="Facilities&lt;div&gt;Management&lt;/div&gt;" style="rounded=1;whiteSpace=wrap;html=1;fontStyle=1" vertex="1" parent="uEPAvsmC9k6E7ESDGV_1-15">
          <mxGeometry x="10" y="140" width="120" height="40" as="geometry" />
        </mxCell>
        <mxCell id="uEPAvsmC9k6E7ESDGV_1-20" value="City Campus 3" style="text;html=1;align=center;verticalAlign=middle;resizable=0;points=[];autosize=1;strokeColor=none;fillColor=none;fontStyle=1" vertex="1" parent="uEPAvsmC9k6E7ESDGV_1-15">
          <mxGeometry x="20" width="100" height="30" as="geometry" />
        </mxCell>
        <mxCell id="uEPAvsmC9k6E7ESDGV_1-21" value="" style="group;fontStyle=1" vertex="1" connectable="0" parent="1">
          <mxGeometry x="40" y="610" width="140" height="190" as="geometry" />
        </mxCell>
        <mxCell id="uEPAvsmC9k6E7ESDGV_1-22" value="" style="rounded=0;whiteSpace=wrap;html=1;fontStyle=1" vertex="1" parent="uEPAvsmC9k6E7ESDGV_1-21">
          <mxGeometry y="30" width="140" height="160" as="geometry" />
        </mxCell>
        <mxCell id="uEPAvsmC9k6E7ESDGV_1-23" value="Falcuty&amp;nbsp;&lt;div&gt;Management&lt;/div&gt;" style="rounded=1;whiteSpace=wrap;html=1;fontStyle=1" vertex="1" parent="uEPAvsmC9k6E7ESDGV_1-21">
          <mxGeometry x="10" y="40" width="120" height="40" as="geometry" />
        </mxCell>
        <mxCell id="uEPAvsmC9k6E7ESDGV_1-24" value="Student&amp;nbsp;&lt;div&gt;Management&lt;/div&gt;" style="rounded=1;whiteSpace=wrap;html=1;fontStyle=1" vertex="1" parent="uEPAvsmC9k6E7ESDGV_1-21">
          <mxGeometry x="10" y="90" width="120" height="40" as="geometry" />
        </mxCell>
        <mxCell id="uEPAvsmC9k6E7ESDGV_1-25" value="Facilities&lt;div&gt;Management&lt;/div&gt;" style="rounded=1;whiteSpace=wrap;html=1;fontStyle=1" vertex="1" parent="uEPAvsmC9k6E7ESDGV_1-21">
          <mxGeometry x="10" y="140" width="120" height="40" as="geometry" />
        </mxCell>
        <mxCell id="uEPAvsmC9k6E7ESDGV_1-26" value="City Campus 4" style="text;html=1;align=center;verticalAlign=middle;resizable=0;points=[];autosize=1;strokeColor=none;fillColor=none;fontStyle=1" vertex="1" parent="uEPAvsmC9k6E7ESDGV_1-21">
          <mxGeometry x="20" width="100" height="30" as="geometry" />
        </mxCell>
        <mxCell id="uEPAvsmC9k6E7ESDGV_1-60" style="edgeStyle=orthogonalEdgeStyle;rounded=0;orthogonalLoop=1;jettySize=auto;html=1;exitX=1;exitY=0;exitDx=0;exitDy=202.5;exitPerimeter=0;entryX=0;entryY=0.5;entryDx=0;entryDy=0;" edge="1" parent="1" source="uEPAvsmC9k6E7ESDGV_1-27" target="uEPAvsmC9k6E7ESDGV_1-38">
          <mxGeometry relative="1" as="geometry">
            <Array as="points">
              <mxPoint x="440" y="125" />
            </Array>
          </mxGeometry>
        </mxCell>
        <mxCell id="uEPAvsmC9k6E7ESDGV_1-61" style="edgeStyle=orthogonalEdgeStyle;rounded=0;orthogonalLoop=1;jettySize=auto;html=1;exitX=1;exitY=0;exitDx=0;exitDy=202.5;exitPerimeter=0;entryX=0;entryY=0.5;entryDx=0;entryDy=0;" edge="1" parent="1" source="uEPAvsmC9k6E7ESDGV_1-27" target="uEPAvsmC9k6E7ESDGV_1-43">
          <mxGeometry relative="1" as="geometry" />
        </mxCell>
        <mxCell id="uEPAvsmC9k6E7ESDGV_1-62" style="edgeStyle=orthogonalEdgeStyle;rounded=0;orthogonalLoop=1;jettySize=auto;html=1;entryX=0;entryY=0.5;entryDx=0;entryDy=0;exitX=1.005;exitY=0.661;exitDx=0;exitDy=0;exitPerimeter=0;" edge="1" parent="1" source="uEPAvsmC9k6E7ESDGV_1-27" target="uEPAvsmC9k6E7ESDGV_1-49">
          <mxGeometry relative="1" as="geometry" />
        </mxCell>
        <mxCell id="uEPAvsmC9k6E7ESDGV_1-63" style="edgeStyle=orthogonalEdgeStyle;rounded=0;orthogonalLoop=1;jettySize=auto;html=1;exitX=1;exitY=0;exitDx=0;exitDy=577.5;exitPerimeter=0;entryX=0;entryY=0.5;entryDx=0;entryDy=0;" edge="1" parent="1" source="uEPAvsmC9k6E7ESDGV_1-27" target="uEPAvsmC9k6E7ESDGV_1-55">
          <mxGeometry relative="1" as="geometry" />
        </mxCell>
        <mxCell id="uEPAvsmC9k6E7ESDGV_1-27" value="&lt;font style=&quot;font-size: 24px;&quot;&gt;&lt;b&gt;Data Warehouse&lt;/b&gt;&lt;/font&gt;" style="shape=cylinder3;whiteSpace=wrap;html=1;boundedLbl=1;backgroundOutline=1;size=15;" vertex="1" parent="1">
          <mxGeometry x="260" y="30" width="180" height="780" as="geometry" />
        </mxCell>
        <mxCell id="uEPAvsmC9k6E7ESDGV_1-28" style="edgeStyle=orthogonalEdgeStyle;rounded=0;orthogonalLoop=1;jettySize=auto;html=1;entryX=-0.024;entryY=0.117;entryDx=0;entryDy=0;entryPerimeter=0;" edge="1" parent="1" source="uEPAvsmC9k6E7ESDGV_1-4" target="uEPAvsmC9k6E7ESDGV_1-27">
          <mxGeometry relative="1" as="geometry" />
        </mxCell>
        <mxCell id="uEPAvsmC9k6E7ESDGV_1-29" style="edgeStyle=orthogonalEdgeStyle;rounded=0;orthogonalLoop=1;jettySize=auto;html=1;entryX=0.017;entryY=0.371;entryDx=0;entryDy=0;entryPerimeter=0;" edge="1" parent="1" source="uEPAvsmC9k6E7ESDGV_1-12" target="uEPAvsmC9k6E7ESDGV_1-27">
          <mxGeometry relative="1" as="geometry" />
        </mxCell>
        <mxCell id="uEPAvsmC9k6E7ESDGV_1-30" style="edgeStyle=orthogonalEdgeStyle;rounded=0;orthogonalLoop=1;jettySize=auto;html=1;entryX=0.001;entryY=0.628;entryDx=0;entryDy=0;entryPerimeter=0;" edge="1" parent="1" source="uEPAvsmC9k6E7ESDGV_1-18" target="uEPAvsmC9k6E7ESDGV_1-27">
          <mxGeometry relative="1" as="geometry" />
        </mxCell>
        <mxCell id="uEPAvsmC9k6E7ESDGV_1-31" style="edgeStyle=orthogonalEdgeStyle;rounded=0;orthogonalLoop=1;jettySize=auto;html=1;entryX=-0.008;entryY=0.886;entryDx=0;entryDy=0;entryPerimeter=0;" edge="1" parent="1" source="uEPAvsmC9k6E7ESDGV_1-22" target="uEPAvsmC9k6E7ESDGV_1-27">
          <mxGeometry relative="1" as="geometry" />
        </mxCell>
        <mxCell id="uEPAvsmC9k6E7ESDGV_1-41" value="" style="group" vertex="1" connectable="0" parent="1">
          <mxGeometry x="680" y="30" width="140" height="190" as="geometry" />
        </mxCell>
        <mxCell id="uEPAvsmC9k6E7ESDGV_1-38" value="g" style="rounded=1;whiteSpace=wrap;html=1;container=1;" vertex="1" parent="uEPAvsmC9k6E7ESDGV_1-41">
          <mxGeometry width="140" height="190" as="geometry" />
        </mxCell>
        <mxCell id="uEPAvsmC9k6E7ESDGV_1-34" value="Falcuty&amp;nbsp;&lt;div&gt;Management&lt;/div&gt;" style="rounded=1;whiteSpace=wrap;html=1;fontStyle=1" vertex="1" parent="uEPAvsmC9k6E7ESDGV_1-41">
          <mxGeometry x="10" y="40" width="120" height="40" as="geometry" />
        </mxCell>
        <mxCell id="uEPAvsmC9k6E7ESDGV_1-35" value="Student&amp;nbsp;&lt;div&gt;Management&lt;/div&gt;" style="rounded=1;whiteSpace=wrap;html=1;fontStyle=1" vertex="1" parent="uEPAvsmC9k6E7ESDGV_1-41">
          <mxGeometry x="10" y="90" width="120" height="40" as="geometry" />
        </mxCell>
        <mxCell id="uEPAvsmC9k6E7ESDGV_1-36" value="Facilities&lt;div&gt;Management&lt;/div&gt;" style="rounded=1;whiteSpace=wrap;html=1;fontStyle=1" vertex="1" parent="uEPAvsmC9k6E7ESDGV_1-41">
          <mxGeometry x="10" y="140" width="120" height="40" as="geometry" />
        </mxCell>
        <mxCell id="uEPAvsmC9k6E7ESDGV_1-37" value="Data Mart Campus 1" style="text;html=1;align=center;verticalAlign=middle;resizable=0;points=[];autosize=1;strokeColor=none;fillColor=none;fontStyle=1" vertex="1" parent="uEPAvsmC9k6E7ESDGV_1-41">
          <mxGeometry x="5" width="130" height="30" as="geometry" />
        </mxCell>
        <mxCell id="uEPAvsmC9k6E7ESDGV_1-42" value="" style="group" vertex="1" connectable="0" parent="1">
          <mxGeometry x="500" y="210" width="140" height="190" as="geometry" />
        </mxCell>
        <mxCell id="uEPAvsmC9k6E7ESDGV_1-43" value="g" style="rounded=1;whiteSpace=wrap;html=1;container=1;" vertex="1" parent="uEPAvsmC9k6E7ESDGV_1-42">
          <mxGeometry width="140" height="190" as="geometry" />
        </mxCell>
        <mxCell id="uEPAvsmC9k6E7ESDGV_1-44" value="Falcuty&amp;nbsp;&lt;div&gt;Management&lt;/div&gt;" style="rounded=1;whiteSpace=wrap;html=1;fontStyle=1" vertex="1" parent="uEPAvsmC9k6E7ESDGV_1-42">
          <mxGeometry x="10" y="40" width="120" height="40" as="geometry" />
        </mxCell>
        <mxCell id="uEPAvsmC9k6E7ESDGV_1-45" value="Student&amp;nbsp;&lt;div&gt;Management&lt;/div&gt;" style="rounded=1;whiteSpace=wrap;html=1;fontStyle=1" vertex="1" parent="uEPAvsmC9k6E7ESDGV_1-42">
          <mxGeometry x="10" y="90" width="120" height="40" as="geometry" />
        </mxCell>
        <mxCell id="uEPAvsmC9k6E7ESDGV_1-46" value="Facilities&lt;div&gt;Management&lt;/div&gt;" style="rounded=1;whiteSpace=wrap;html=1;fontStyle=1" vertex="1" parent="uEPAvsmC9k6E7ESDGV_1-42">
          <mxGeometry x="10" y="140" width="120" height="40" as="geometry" />
        </mxCell>
        <mxCell id="uEPAvsmC9k6E7ESDGV_1-47" value="Data Mart Campus 2" style="text;html=1;align=center;verticalAlign=middle;resizable=0;points=[];autosize=1;strokeColor=none;fillColor=none;fontStyle=1" vertex="1" parent="uEPAvsmC9k6E7ESDGV_1-42">
          <mxGeometry x="5" width="130" height="30" as="geometry" />
        </mxCell>
        <mxCell id="uEPAvsmC9k6E7ESDGV_1-48" value="" style="group" vertex="1" connectable="0" parent="1">
          <mxGeometry x="690" y="450" width="140" height="190" as="geometry" />
        </mxCell>
        <mxCell id="uEPAvsmC9k6E7ESDGV_1-49" value="g" style="rounded=1;whiteSpace=wrap;html=1;container=1;" vertex="1" parent="uEPAvsmC9k6E7ESDGV_1-48">
          <mxGeometry width="140" height="190" as="geometry" />
        </mxCell>
        <mxCell id="uEPAvsmC9k6E7ESDGV_1-50" value="Falcuty&amp;nbsp;&lt;div&gt;Management&lt;/div&gt;" style="rounded=1;whiteSpace=wrap;html=1;fontStyle=1" vertex="1" parent="uEPAvsmC9k6E7ESDGV_1-48">
          <mxGeometry x="10" y="40" width="120" height="40" as="geometry" />
        </mxCell>
        <mxCell id="uEPAvsmC9k6E7ESDGV_1-51" value="Student&amp;nbsp;&lt;div&gt;Management&lt;/div&gt;" style="rounded=1;whiteSpace=wrap;html=1;fontStyle=1" vertex="1" parent="uEPAvsmC9k6E7ESDGV_1-48">
          <mxGeometry x="10" y="90" width="120" height="40" as="geometry" />
        </mxCell>
        <mxCell id="uEPAvsmC9k6E7ESDGV_1-52" value="Facilities&lt;div&gt;Management&lt;/div&gt;" style="rounded=1;whiteSpace=wrap;html=1;fontStyle=1" vertex="1" parent="uEPAvsmC9k6E7ESDGV_1-48">
          <mxGeometry x="10" y="140" width="120" height="40" as="geometry" />
        </mxCell>
        <mxCell id="uEPAvsmC9k6E7ESDGV_1-53" value="Data Mart Campus 3" style="text;html=1;align=center;verticalAlign=middle;resizable=0;points=[];autosize=1;strokeColor=none;fillColor=none;fontStyle=1" vertex="1" parent="uEPAvsmC9k6E7ESDGV_1-48">
          <mxGeometry x="5" width="130" height="30" as="geometry" />
        </mxCell>
        <mxCell id="uEPAvsmC9k6E7ESDGV_1-54" value="" style="group" vertex="1" connectable="0" parent="1">
          <mxGeometry x="510" y="570" width="140" height="190" as="geometry" />
        </mxCell>
        <mxCell id="uEPAvsmC9k6E7ESDGV_1-55" value="g" style="rounded=1;whiteSpace=wrap;html=1;container=1;" vertex="1" parent="uEPAvsmC9k6E7ESDGV_1-54">
          <mxGeometry width="140" height="190" as="geometry" />
        </mxCell>
        <mxCell id="uEPAvsmC9k6E7ESDGV_1-56" value="Falcuty&amp;nbsp;&lt;div&gt;Management&lt;/div&gt;" style="rounded=1;whiteSpace=wrap;html=1;fontStyle=1" vertex="1" parent="uEPAvsmC9k6E7ESDGV_1-54">
          <mxGeometry x="10" y="40" width="120" height="40" as="geometry" />
        </mxCell>
        <mxCell id="uEPAvsmC9k6E7ESDGV_1-57" value="Student&amp;nbsp;&lt;div&gt;Management&lt;/div&gt;" style="rounded=1;whiteSpace=wrap;html=1;fontStyle=1" vertex="1" parent="uEPAvsmC9k6E7ESDGV_1-54">
          <mxGeometry x="10" y="90" width="120" height="40" as="geometry" />
        </mxCell>
        <mxCell id="uEPAvsmC9k6E7ESDGV_1-58" value="Facilities&lt;div&gt;Management&lt;/div&gt;" style="rounded=1;whiteSpace=wrap;html=1;fontStyle=1" vertex="1" parent="uEPAvsmC9k6E7ESDGV_1-54">
          <mxGeometry x="10" y="140" width="120" height="40" as="geometry" />
        </mxCell>
        <mxCell id="uEPAvsmC9k6E7ESDGV_1-59" value="Data Mart Campus 4" style="text;html=1;align=center;verticalAlign=middle;resizable=0;points=[];autosize=1;strokeColor=none;fillColor=none;fontStyle=1" vertex="1" parent="uEPAvsmC9k6E7ESDGV_1-54">
          <mxGeometry x="5" width="130" height="30" as="geometry" />
        </mxCell>
        <mxCell id="uEPAvsmC9k6E7ESDGV_1-64" value="" style="rounded=0;whiteSpace=wrap;html=1;fontStyle=1" vertex="1" parent="1">
          <mxGeometry x="970" y="80" width="140" height="160" as="geometry" />
        </mxCell>
        <mxCell id="uEPAvsmC9k6E7ESDGV_1-65" value="Falcuty&amp;nbsp;&lt;div&gt;Management&lt;/div&gt;" style="rounded=1;whiteSpace=wrap;html=1;fontStyle=1" vertex="1" parent="1">
          <mxGeometry x="980" y="90" width="120" height="40" as="geometry" />
        </mxCell>
        <mxCell id="uEPAvsmC9k6E7ESDGV_1-66" value="Student&amp;nbsp;&lt;div&gt;Management&lt;/div&gt;" style="rounded=1;whiteSpace=wrap;html=1;fontStyle=1" vertex="1" parent="1">
          <mxGeometry x="980" y="140" width="120" height="40" as="geometry" />
        </mxCell>
        <mxCell id="uEPAvsmC9k6E7ESDGV_1-67" value="Facilities&lt;div&gt;Management&lt;/div&gt;" style="rounded=1;whiteSpace=wrap;html=1;fontStyle=1" vertex="1" parent="1">
          <mxGeometry x="980" y="190" width="120" height="40" as="geometry" />
        </mxCell>
        <mxCell id="uEPAvsmC9k6E7ESDGV_1-68" value="" style="group;fontStyle=1" vertex="1" connectable="0" parent="1">
          <mxGeometry x="970" y="250" width="140" height="190" as="geometry" />
        </mxCell>
        <mxCell id="uEPAvsmC9k6E7ESDGV_1-69" value="" style="rounded=0;whiteSpace=wrap;html=1;fontStyle=1" vertex="1" parent="uEPAvsmC9k6E7ESDGV_1-68">
          <mxGeometry y="30" width="140" height="160" as="geometry" />
        </mxCell>
        <mxCell id="uEPAvsmC9k6E7ESDGV_1-70" value="Falcuty&amp;nbsp;&lt;div&gt;Management&lt;/div&gt;" style="rounded=1;whiteSpace=wrap;html=1;fontStyle=1" vertex="1" parent="uEPAvsmC9k6E7ESDGV_1-68">
          <mxGeometry x="10" y="40" width="120" height="40" as="geometry" />
        </mxCell>
        <mxCell id="uEPAvsmC9k6E7ESDGV_1-71" value="Student&amp;nbsp;&lt;div&gt;Management&lt;/div&gt;" style="rounded=1;whiteSpace=wrap;html=1;fontStyle=1" vertex="1" parent="uEPAvsmC9k6E7ESDGV_1-68">
          <mxGeometry x="10" y="90" width="120" height="40" as="geometry" />
        </mxCell>
        <mxCell id="uEPAvsmC9k6E7ESDGV_1-72" value="Facilities&lt;div&gt;Management&lt;/div&gt;" style="rounded=1;whiteSpace=wrap;html=1;fontStyle=1" vertex="1" parent="uEPAvsmC9k6E7ESDGV_1-68">
          <mxGeometry x="10" y="140" width="120" height="40" as="geometry" />
        </mxCell>
        <mxCell id="uEPAvsmC9k6E7ESDGV_1-73" value="City Campus 2" style="text;html=1;align=center;verticalAlign=middle;resizable=0;points=[];autosize=1;strokeColor=none;fillColor=none;fontStyle=1" vertex="1" parent="uEPAvsmC9k6E7ESDGV_1-68">
          <mxGeometry x="20" width="100" height="30" as="geometry" />
        </mxCell>
        <mxCell id="uEPAvsmC9k6E7ESDGV_1-74" value="" style="group;fontStyle=1" vertex="1" connectable="0" parent="1">
          <mxGeometry x="970" y="450" width="140" height="190" as="geometry" />
        </mxCell>
        <mxCell id="uEPAvsmC9k6E7ESDGV_1-75" value="" style="rounded=0;whiteSpace=wrap;html=1;fontStyle=1" vertex="1" parent="uEPAvsmC9k6E7ESDGV_1-74">
          <mxGeometry y="30" width="140" height="160" as="geometry" />
        </mxCell>
        <mxCell id="uEPAvsmC9k6E7ESDGV_1-76" value="Falcuty&amp;nbsp;&lt;div&gt;Management&lt;/div&gt;" style="rounded=1;whiteSpace=wrap;html=1;fontStyle=1" vertex="1" parent="uEPAvsmC9k6E7ESDGV_1-74">
          <mxGeometry x="10" y="40" width="120" height="40" as="geometry" />
        </mxCell>
        <mxCell id="uEPAvsmC9k6E7ESDGV_1-77" value="Student&amp;nbsp;&lt;div&gt;Management&lt;/div&gt;" style="rounded=1;whiteSpace=wrap;html=1;fontStyle=1" vertex="1" parent="uEPAvsmC9k6E7ESDGV_1-74">
          <mxGeometry x="10" y="90" width="120" height="40" as="geometry" />
        </mxCell>
        <mxCell id="uEPAvsmC9k6E7ESDGV_1-78" value="Facilities&lt;div&gt;Management&lt;/div&gt;" style="rounded=1;whiteSpace=wrap;html=1;fontStyle=1" vertex="1" parent="uEPAvsmC9k6E7ESDGV_1-74">
          <mxGeometry x="10" y="140" width="120" height="40" as="geometry" />
        </mxCell>
        <mxCell id="uEPAvsmC9k6E7ESDGV_1-79" value="City Campus 3" style="text;html=1;align=center;verticalAlign=middle;resizable=0;points=[];autosize=1;strokeColor=none;fillColor=none;fontStyle=1" vertex="1" parent="uEPAvsmC9k6E7ESDGV_1-74">
          <mxGeometry x="20" width="100" height="30" as="geometry" />
        </mxCell>
        <mxCell id="uEPAvsmC9k6E7ESDGV_1-80" value="" style="group;fontStyle=1" vertex="1" connectable="0" parent="1">
          <mxGeometry x="970" y="650" width="140" height="190" as="geometry" />
        </mxCell>
        <mxCell id="uEPAvsmC9k6E7ESDGV_1-81" value="" style="rounded=0;whiteSpace=wrap;html=1;fontStyle=1" vertex="1" parent="uEPAvsmC9k6E7ESDGV_1-80">
          <mxGeometry y="30" width="140" height="160" as="geometry" />
        </mxCell>
        <mxCell id="uEPAvsmC9k6E7ESDGV_1-82" value="Falcuty&amp;nbsp;&lt;div&gt;Management&lt;/div&gt;" style="rounded=1;whiteSpace=wrap;html=1;fontStyle=1" vertex="1" parent="uEPAvsmC9k6E7ESDGV_1-80">
          <mxGeometry x="10" y="40" width="120" height="40" as="geometry" />
        </mxCell>
        <mxCell id="uEPAvsmC9k6E7ESDGV_1-83" value="Student&amp;nbsp;&lt;div&gt;Management&lt;/div&gt;" style="rounded=1;whiteSpace=wrap;html=1;fontStyle=1" vertex="1" parent="uEPAvsmC9k6E7ESDGV_1-80">
          <mxGeometry x="10" y="90" width="120" height="40" as="geometry" />
        </mxCell>
        <mxCell id="uEPAvsmC9k6E7ESDGV_1-84" value="Facilities&lt;div&gt;Management&lt;/div&gt;" style="rounded=1;whiteSpace=wrap;html=1;fontStyle=1" vertex="1" parent="uEPAvsmC9k6E7ESDGV_1-80">
          <mxGeometry x="10" y="140" width="120" height="40" as="geometry" />
        </mxCell>
        <mxCell id="uEPAvsmC9k6E7ESDGV_1-85" value="City Campus 4" style="text;html=1;align=center;verticalAlign=middle;resizable=0;points=[];autosize=1;strokeColor=none;fillColor=none;fontStyle=1" vertex="1" parent="uEPAvsmC9k6E7ESDGV_1-80">
          <mxGeometry x="20" width="100" height="30" as="geometry" />
        </mxCell>
        <mxCell id="uEPAvsmC9k6E7ESDGV_1-96" style="edgeStyle=orthogonalEdgeStyle;rounded=0;orthogonalLoop=1;jettySize=auto;html=1;entryX=0;entryY=0.5;entryDx=0;entryDy=0;exitX=1.018;exitY=0.1;exitDx=0;exitDy=0;exitPerimeter=0;" edge="1" parent="1" source="uEPAvsmC9k6E7ESDGV_1-86" target="uEPAvsmC9k6E7ESDGV_1-92">
          <mxGeometry relative="1" as="geometry" />
        </mxCell>
        <mxCell id="uEPAvsmC9k6E7ESDGV_1-98" style="edgeStyle=orthogonalEdgeStyle;rounded=0;orthogonalLoop=1;jettySize=auto;html=1;entryX=0;entryY=0.5;entryDx=0;entryDy=0;exitX=1;exitY=0.359;exitDx=0;exitDy=0;exitPerimeter=0;" edge="1" parent="1" source="uEPAvsmC9k6E7ESDGV_1-86" target="uEPAvsmC9k6E7ESDGV_1-93">
          <mxGeometry relative="1" as="geometry" />
        </mxCell>
        <mxCell id="uEPAvsmC9k6E7ESDGV_1-99" style="edgeStyle=orthogonalEdgeStyle;rounded=0;orthogonalLoop=1;jettySize=auto;html=1;entryX=0;entryY=0.5;entryDx=0;entryDy=0;" edge="1" parent="1" source="uEPAvsmC9k6E7ESDGV_1-86" target="uEPAvsmC9k6E7ESDGV_1-94">
          <mxGeometry relative="1" as="geometry" />
        </mxCell>
        <mxCell id="uEPAvsmC9k6E7ESDGV_1-86" value="&lt;font style=&quot;font-size: 24px;&quot;&gt;&lt;b&gt;Data Warehouse&lt;/b&gt;&lt;/font&gt;" style="shape=cylinder3;whiteSpace=wrap;html=1;boundedLbl=1;backgroundOutline=1;size=15;" vertex="1" parent="1">
          <mxGeometry x="1190" y="70" width="180" height="780" as="geometry" />
        </mxCell>
        <mxCell id="uEPAvsmC9k6E7ESDGV_1-87" style="edgeStyle=orthogonalEdgeStyle;rounded=0;orthogonalLoop=1;jettySize=auto;html=1;entryX=-0.024;entryY=0.117;entryDx=0;entryDy=0;entryPerimeter=0;" edge="1" parent="1" source="uEPAvsmC9k6E7ESDGV_1-66" target="uEPAvsmC9k6E7ESDGV_1-86">
          <mxGeometry relative="1" as="geometry" />
        </mxCell>
        <mxCell id="uEPAvsmC9k6E7ESDGV_1-88" style="edgeStyle=orthogonalEdgeStyle;rounded=0;orthogonalLoop=1;jettySize=auto;html=1;entryX=0.017;entryY=0.371;entryDx=0;entryDy=0;entryPerimeter=0;" edge="1" parent="1" source="uEPAvsmC9k6E7ESDGV_1-71" target="uEPAvsmC9k6E7ESDGV_1-86">
          <mxGeometry relative="1" as="geometry" />
        </mxCell>
        <mxCell id="uEPAvsmC9k6E7ESDGV_1-89" style="edgeStyle=orthogonalEdgeStyle;rounded=0;orthogonalLoop=1;jettySize=auto;html=1;entryX=0.001;entryY=0.628;entryDx=0;entryDy=0;entryPerimeter=0;" edge="1" parent="1" source="uEPAvsmC9k6E7ESDGV_1-77" target="uEPAvsmC9k6E7ESDGV_1-86">
          <mxGeometry relative="1" as="geometry" />
        </mxCell>
        <mxCell id="uEPAvsmC9k6E7ESDGV_1-90" style="edgeStyle=orthogonalEdgeStyle;rounded=0;orthogonalLoop=1;jettySize=auto;html=1;entryX=-0.008;entryY=0.886;entryDx=0;entryDy=0;entryPerimeter=0;" edge="1" parent="1" source="uEPAvsmC9k6E7ESDGV_1-81" target="uEPAvsmC9k6E7ESDGV_1-86">
          <mxGeometry relative="1" as="geometry" />
        </mxCell>
        <mxCell id="uEPAvsmC9k6E7ESDGV_1-92" value="Faculty Management&lt;div&gt;Data Mart&lt;/div&gt;" style="rounded=1;whiteSpace=wrap;html=1;" vertex="1" parent="1">
          <mxGeometry x="1490" y="105" width="130" height="40" as="geometry" />
        </mxCell>
        <mxCell id="uEPAvsmC9k6E7ESDGV_1-93" value="Student Management&lt;div&gt;Data Mart&lt;/div&gt;" style="rounded=1;whiteSpace=wrap;html=1;" vertex="1" parent="1">
          <mxGeometry x="1490" y="285" width="130" height="40" as="geometry" />
        </mxCell>
        <mxCell id="uEPAvsmC9k6E7ESDGV_1-94" value="Facilities Management&lt;div&gt;Data Mart&lt;/div&gt;" style="rounded=1;whiteSpace=wrap;html=1;" vertex="1" parent="1">
          <mxGeometry x="1490" y="540" width="130" height="40" as="geometry" />
        </mxCell>
      </root>
    </mxGraphModel>
  </diagram>
</mxfile>
